<?xml version="1.0" encoding="UTF-8"?>
<svg version="1.1" xmlns="http://www.w3.org/2000/svg" width="48" height="48">
<path d="M0 0 C0.33 0.99 0.66 1.98 1 3 C3.475 3.495 3.475 3.495 6 4 C6.3403125 5.36125 6.3403125 5.36125 6.6875 6.75 C7.74129341 10.15596551 7.74129341 10.15596551 10.625 12 C13 14 13 14 13.5 17.0625 C12.93534316 20.37985893 12.37049048 20.81185494 10 23 C8.79950593 26.10007201 8.79950593 26.10007201 8 29 C6.02 29.33 4.04 29.66 2 30 C2 30.66 2 31.32 2 32 C-0.475 32.495 -0.475 32.495 -3 33 C-3 35.64 -3 38.28 -3 41 C-1.68 41 -0.36 41 1 41 C1.33 41.99 1.66 42.98 2 44 C-0 46 -0 46 -2.3828125 46.1953125 C-3.74019531 46.16050781 -3.74019531 46.16050781 -5.125 46.125 C-6.03507812 46.10695312 -6.94515625 46.08890625 -7.8828125 46.0703125 C-8.58148438 46.04710937 -9.28015625 46.02390625 -10 46 C-10.33 44.35 -10.66 42.7 -11 41 C-9.68 41 -8.36 41 -7 41 C-7 38.36 -7 35.72 -7 33 C-7.86238281 32.80470703 -7.86238281 32.80470703 -8.7421875 32.60546875 C-12.45491086 31.60984224 -15.84613255 30.21887135 -19 28 C-20.375 24.9375 -20.375 24.9375 -21 22 C-21.66 21.01 -22.32 20.02 -23 19 C-23.4375 16.5625 -23.4375 16.5625 -23 14 C-21.34614767 12.65080468 -19.678298 11.31866272 -18 10 C-16.65227097 6.87866256 -16.65227097 6.87866256 -16 4 C-14.824375 3.87625 -14.824375 3.87625 -13.625 3.75 C-10.8553382 3.29150599 -10.8553382 3.29150599 -9.875 1 C-9.58625 0.34 -9.2975 -0.32 -9 -1 C-5.19881294 -2.26706235 -3.6149628 -1.57172296 0 0 Z " fill="#F5BC95" transform="translate(29,2)"/>
<path d="M0 0 C1.875 1.1875 1.875 1.1875 3 3 C3.375 6 3.375 6 3 9 C1.625 10.5 1.625 10.5 0 12 C-1.20049407 15.10007201 -1.20049407 15.10007201 -2 18 C-3.98 18.33 -5.96 18.66 -8 19 C-8 19.66 -8 20.32 -8 21 C-9.98 21.33 -11.96 21.66 -14 22 C-14 19.69 -14 17.38 -14 15 C-13.443125 14.814375 -12.88625 14.62875 -12.3125 14.4375 C-9.36667364 12.60631064 -8.05841709 10.37253894 -6.24609375 7.4609375 C-5.83488281 6.97882812 -5.42367187 6.49671875 -5 6 C-4.01 6 -3.02 6 -2 6 C-2 5.34 -2 4.68 -2 4 C-5.55514648 5.01575614 -7.43437392 6.28176947 -9.6875 9.125 C-10.450625 10.07375 -11.21375 11.0225 -12 12 C-12.66 12 -13.32 12 -14 12 C-14.36571952 5.53895509 -14.36571952 5.53895509 -12.8125 3.25 C-12.214375 2.8375 -11.61625 2.425 -11 2 C-10.236875 1.4225 -9.47375 0.845 -8.6875 0.25 C-5.27230873 -1.33846106 -3.56879107 -1.0861538 0 0 Z " fill="#977E44" transform="translate(39,13)"/>
<path d="M0 0 C0.66 0 1.32 0 2 0 C2 5.61 2 11.22 2 17 C5.36664638 13.67305468 5.36664638 13.67305468 8.5625 10.1875 C10 9 10 9 14 9 C14 9.66 14 10.32 14 11 C13.4225 11.20625 12.845 11.4125 12.25 11.625 C9.20621281 13.48509217 7.94514167 16.05091424 6 19 C5.01 19.33 4.02 19.66 3 20 C3 24.95 3 29.9 3 35 C4.32 35 5.64 35 7 35 C7.33 35.99 7.66 36.98 8 38 C6 40 6 40 3.6171875 40.1953125 C2.25980469 40.16050781 2.25980469 40.16050781 0.875 40.125 C-0.03507812 40.10695312 -0.94515625 40.08890625 -1.8828125 40.0703125 C-2.58148438 40.04710937 -3.28015625 40.02390625 -4 40 C-4.33 38.35 -4.66 36.7 -5 35 C-3.68 35 -2.36 35 -1 35 C-1.020625 33.824375 -1.04125 32.64875 -1.0625 31.4375 C-1.06947261 27.52586533 -0.64250343 23.85502056 0 20 C-0.7425 19.79375 -1.485 19.5875 -2.25 19.375 C-5.7895636 17.6052182 -6.90044336 15.28930541 -9 12 C-9.99 11.67 -10.98 11.34 -12 11 C-12 10.34 -12 9.68 -12 9 C-9.75 9.125 -9.75 9.125 -7 10 C-5.61061923 11.96147874 -4.2739589 13.96166576 -3 16 C-2.01 16.33 -1.02 16.66 0 17 C0 11.39 0 5.78 0 0 Z " fill="#C8C8C6" transform="translate(23,8)"/>
<path d="M0 0 C-0.66 2.31 -1.32 4.62 -2 7 C-3.98 7.33 -5.96 7.66 -8 8 C-8 8.66 -8 9.32 -8 10 C-9.98 10.33 -11.96 10.66 -14 11 C-14 8.69 -14 6.38 -14 4 C-9.02495953 0.75099398 -6.11774896 -0.49940808 0 0 Z " fill="#336733" transform="translate(39,24)"/>
<path d="M0 0 C4.11878582 -0.32950287 6.64358121 -0.16200854 10.4375 1.5625 C13 4 13 4 13.375 7.75 C13.25125 8.8225 13.1275 9.895 13 11 C8.14036821 10.39254603 4.2594482 8.27241033 0 6 C0 4.02 0 2.04 0 0 Z " fill="#376A35" transform="translate(10,24)"/>
<path d="M0 0 C2.8125 0.8125 2.8125 0.8125 3.8125 1.8125 C3.85313832 3.47867115 3.855221 5.14638095 3.8125 6.8125 C2.52336513 7.48404933 1.23109796 8.14958859 -0.0625 8.8125 C-0.78179688 9.18375 -1.50109375 9.555 -2.2421875 9.9375 C-4.1875 10.8125 -4.1875 10.8125 -6.1875 10.8125 C-6.5175 11.4725 -6.8475 12.1325 -7.1875 12.8125 C-7.80328947 4.80723684 -7.80328947 4.80723684 -5.5625 1.1875 C-3.1875 -0.1875 -3.1875 -0.1875 0 0 Z " fill="#D78E50" transform="translate(32.1875,5.1875)"/>
<path d="M0 0 C0 1.32 0 2.64 0 4 C-2.72611199 6.72611199 -5.23293356 7.47679633 -9 8 C-9.59732819 5.23735711 -10 2.83967231 -10 0 C-6.22996568 -2.61002376 -4.07631429 -1.66758312 0 0 Z " fill="#FDA569" transform="translate(29,2)"/>
<path d="M0 0 C0.36206897 6.39655172 0.36206897 6.39655172 -1.125 8.875 C-3.67384706 10.40430823 -6.07238473 10.67470941 -9 11 C-9 10.01 -9 9.02 -9 8 C-8.34 7.67 -7.68 7.34 -7 7 C-6.67 6.01 -6.34 5.02 -6 4 C-5.67 3.01 -5.34 2.02 -5 1 C-3 0 -3 0 0 0 Z " fill="#FDC69D" transform="translate(18,5)"/>
<path d="M0 0 C0.66 0.33 1.32 0.66 2 1 C2.125 3.875 2.125 3.875 2 7 C-0.49505962 9.49505962 -1.67328888 9.35948376 -5.125 9.625 C-6.03507812 9.69976562 -6.94515625 9.77453125 -7.8828125 9.8515625 C-8.93082031 9.92503906 -8.93082031 9.92503906 -10 10 C-8.25 7 -8.25 7 -6 4 C-4.68 4 -3.36 4 -2 4 C-1.34 2.68 -0.68 1.36 0 0 Z " fill="#7E7A43" transform="translate(40,15)"/>
<path d="M0 0 C3.3 0 6.6 0 10 0 C10 1.98 10 3.96 10 6 C6.33118845 5.29445932 3.29549466 3.72264494 0 2 C0 1.34 0 0.68 0 0 Z " fill="#05571B" transform="translate(12,29)"/>
<path d="M0 0 C2.4294516 3.6441774 2.16179575 5.71241272 2 10 C0.125 9.875 0.125 9.875 -2 9 C-3.25 5.9375 -3.25 5.9375 -4 3 C-2.68 2.01 -1.36 1.02 0 0 Z " fill="#A19569" transform="translate(21,15)"/>
<path d="M0 0 C-0.95117134 1.1725131 -1.91117009 2.33787015 -2.875 3.5 C-3.40867187 4.1496875 -3.94234375 4.799375 -4.4921875 5.46875 C-4.98976563 5.9740625 -5.48734375 6.479375 -6 7 C-6.66 7 -7.32 7 -8 7 C-8 4.69 -8 2.38 -8 0 C-4.71303767 -0.79953138 -3.28976808 -1.09658936 0 0 Z " fill="#878452" transform="translate(33,18)"/>
<path d="M0 0 C0.66 1.32 1.32 2.64 2 4 C-0.64 4.33 -3.28 4.66 -6 5 C-6.66 3.68 -7.32 2.36 -8 1 C-5.29120665 -0.35439668 -2.99066732 -0.06501451 0 0 Z " fill="#A39466" transform="translate(15,20)"/>
<path d="M0 0 C2.1875 0.0625 2.1875 0.0625 5 1 C6.48481018 2.67884788 7.67806853 4.42278445 8.88671875 6.30859375 C10.02053757 8.15512681 10.02053757 8.15512681 12 10 C9.75 9.875 9.75 9.875 7 9 C5.61061923 7.03852126 4.2739589 5.03833424 3 3 C2.01 2.67 1.02 2.34 0 2 C0 1.34 0 0.68 0 0 Z " fill="#EEEDE7" transform="translate(11,17)"/>
<path d="M0 0 C-0.33 1.32 -0.66 2.64 -1 4 C-1.495 3.814375 -1.99 3.62875 -2.5 3.4375 C-6.15081689 2.79860704 -9.33964724 3.45094709 -13 4 C-8.32733754 0.41762545 -5.97976363 -0.11073636 0 0 Z " fill="#466A34" transform="translate(39,24)"/>
<path d="M0 0 C1.32 0 2.64 0 4 0 C4 0.66 4 1.32 4 2 C3.401875 2.226875 2.80375 2.45375 2.1875 2.6875 C-0.21911415 3.89660151 -0.21911415 3.89660151 -1.5625 6.625 C-2.2740625 7.800625 -2.2740625 7.800625 -3 9 C-3.99 9 -4.98 9 -6 9 C-4.46782946 5.55261628 -2.59429556 2.74690118 0 0 Z " fill="#EAEAE3" transform="translate(33,17)"/>
<path d="M0 0 C0.33 0 0.66 0 1 0 C1 2.97 1 5.94 1 9 C0.34 8.34 -0.32 7.68 -1 7 C-3.475 8.485 -3.475 8.485 -6 10 C-6.66 9.01 -7.32 8.02 -8 7 C-6.865625 6.5875 -5.73125 6.175 -4.5625 5.75 C-0.90456616 4.43314602 -0.90456616 4.43314602 -0.0625 1.8125 C-0.041875 1.214375 -0.02125 0.61625 0 0 Z " fill="#DDB087" transform="translate(22,9)"/>
<path d="M0 0 C0.66 1.32 1.32 2.64 2 4 C2.7425 3.649375 3.485 3.29875 4.25 2.9375 C7.21122875 1.9279902 8.12062561 2.12019116 11 3 C9.71086513 3.67154933 8.41859796 4.33708859 7.125 5 C6.40570312 5.37125 5.68640625 5.7425 4.9453125 6.125 C3 7 3 7 1 7 C0.67 7.66 0.34 8.32 0 9 C0 6.03 0 3.06 0 0 Z " fill="#C3925E" transform="translate(25,9)"/>
<path d="M0 0 C-1.66342837 1.66342837 -3.7825709 1.36048097 -6.0625 1.5625 C-6.98160156 1.64628906 -7.90070312 1.73007812 -8.84765625 1.81640625 C-9.55792969 1.87699219 -10.26820312 1.93757813 -11 2 C-9.296875 -1.8828125 -9.296875 -1.8828125 -6.625 -2.9375 C-3.39060303 -3.01450945 -2.32902796 -2.15650737 0 0 Z " fill="#69743E" transform="translate(41,23)"/>
<path d="M0 0 C0.66 0 1.32 0 2 0 C2 5.61 2 11.22 2 17 C3.32 17.66 4.64 18.32 6 19 C4.0625 19.5625 4.0625 19.5625 2 20 C0.45049732 18.45049732 0.78344807 16.90009406 0.68359375 14.74609375 C0.64169922 13.89208984 0.59980469 13.03808594 0.55664062 12.15820312 C0.51732422 11.26037109 0.47800781 10.36253906 0.4375 9.4375 C0.39431641 8.53580078 0.35113281 7.63410156 0.30664062 6.70507812 C0.20021858 4.47021515 0.09820012 2.23523692 0 0 Z " fill="#B7B6B2" transform="translate(23,8)"/>
<path d="M0 0 C2.475 0.495 2.475 0.495 5 1 C5 2.32 5 3.64 5 5 C3.35 5.33 1.7 5.66 0 6 C0 4.02 0 2.04 0 0 Z " fill="#0B5B20" transform="translate(26,29)"/>
<path d="M0 0 C0.33 0 0.66 0 1 0 C1.144375 0.7425 1.28875 1.485 1.4375 2.25 C1.90187492 4.52027739 2.41863569 6.75759479 3 9 C2.01 9.33 1.02 9.66 0 10 C-1.49106457 7.01787087 -1.11941467 4.28390342 -1 1 C-0.67 0.67 -0.34 0.34 0 0 Z " fill="#FAB583" transform="translate(19,4)"/>
<path d="M0 0 C-0.804375 0.45375 -1.60875 0.9075 -2.4375 1.375 C-5.08856572 2.74725665 -5.08856572 2.74725665 -6 5 C-7.32 5 -8.64 5 -10 5 C-10 4.34 -10 3.68 -10 3 C-3.375 -1.125 -3.375 -1.125 0 0 Z " fill="#AD854A" transform="translate(36,13)"/>
<path d="M0 0 C2.125 0.375 2.125 0.375 4 1 C3.34 1 2.68 1 2 1 C1.731875 1.61875 1.46375 2.2375 1.1875 2.875 C0 5 0 5 -3 7 C-2.25 2.25 -2.25 2.25 0 0 Z " fill="#EC9657" transform="translate(29,5)"/>
<path d="M0 0 C1.32 0.33 2.64 0.66 4 1 C4 1.66 4 2.32 4 3 C5.32 3.33 6.64 3.66 8 4 C5.36 4.33 2.72 4.66 0 5 C0 3.35 0 1.7 0 0 Z " fill="#DEB48D" transform="translate(6,16)"/>
</svg>
